<svg xmlns="http://www.w3.org/2000/svg" aria-label="Register to Verify to Pay flow" role="img" shape-rendering="crispEdges" viewBox="0 0 480 160"><defs><linearGradient id="flow" x1="0" x2="1" y1="0" y2="0"><stop offset="0%" stop-color="#B45309"/><stop offset="100%" stop-color="#FBBF24"/></linearGradient><style>.sh{fill:#78350f}.md{fill:#b45309}.hi{fill:#fbbf24}.gl{fill:#fef3c7}.doc{fill:#1e293b}.doc2{fill:#334155}.docline{fill:#475569}.bg{fill:#0f172a}.bgborder{fill:#334155}.flow{fill:url(#flow)}.label{fill:#94a3b8;font-family:ui-sans-serif,system-ui,sans-serif;font-size:12px;font-weight:600;letter-spacing:.08em;text-transform:uppercase}</style></defs><rect width="280" height="8" x="100" y="76" class="flow"/><g transform="translate(24, 32)"><rect width="72" height="96" x="0" y="0" class="bgborder" rx="8"/><rect width="68" height="92" x="2" y="2" class="bg" rx="6"/><rect width="32" height="40" x="20" y="20" class="doc2" rx="2"/><rect width="28" height="36" x="22" y="22" class="doc"/><rect width="20" height="2" x="26" y="28" class="docline"/><rect width="20" height="2" x="26" y="34" class="docline"/><rect width="14" height="2" x="26" y="40" class="docline"/><rect width="20" height="6" x="26" y="48" class="hi"/><text x="36" y="78" class="label" text-anchor="middle">REGISTER</text></g><g transform="translate(204, 32)"><rect width="72" height="96" x="0" y="0" class="bgborder" rx="8"/><rect width="68" height="92" x="2" y="2" class="bg" rx="6"/><circle cx="36" cy="40" r="20" fill="#2DD4BF" opacity=".15"/><circle cx="36" cy="40" r="14" fill="#2DD4BF"/><rect width="4" height="4" x="28" y="40" class="bg"/><rect width="4" height="4" x="32" y="44" class="bg"/><rect width="4" height="4" x="36" y="40" class="bg"/><rect width="4" height="4" x="40" y="36" class="bg"/><rect width="4" height="4" x="44" y="32" class="bg"/><text x="36" y="78" class="label" text-anchor="middle">VERIFY</text></g><g transform="translate(384, 32)"><rect width="72" height="96" x="0" y="0" class="bgborder" rx="8"/><rect width="68" height="92" x="2" y="2" class="bg" rx="6"/><g transform="translate(18, 18) scale(0.55)"><rect width="4" height="4" x="20" y="4" class="sh"/><rect width="4" height="4" x="24" y="4" class="sh"/><rect width="4" height="4" x="28" y="4" class="sh"/><rect width="4" height="4" x="32" y="4" class="sh"/><rect width="4" height="4" x="36" y="4" class="sh"/><rect width="4" height="4" x="40" y="4" class="sh"/><rect width="4" height="4" x="12" y="8" class="sh"/><rect width="4" height="4" x="16" y="8" class="sh"/><rect width="4" height="4" x="20" y="8" class="md"/><rect width="4" height="4" x="24" y="8" class="md"/><rect width="4" height="4" x="28" y="8" class="md"/><rect width="4" height="4" x="32" y="8" class="md"/><rect width="4" height="4" x="36" y="8" class="md"/><rect width="4" height="4" x="40" y="8" class="md"/><rect width="4" height="4" x="44" y="8" class="sh"/><rect width="4" height="4" x="48" y="8" class="sh"/><rect width="4" height="4" x="8" y="12" class="sh"/><rect width="4" height="4" x="12" y="12" class="md"/><rect width="4" height="4" x="16" y="12" class="hi"/><rect width="4" height="4" x="20" y="12" class="hi"/><rect width="4" height="4" x="24" y="12" class="hi"/><rect width="4" height="4" x="28" y="12" class="gl"/><rect width="4" height="4" x="32" y="12" class="hi"/><rect width="4" height="4" x="36" y="12" class="hi"/><rect width="4" height="4" x="40" y="12" class="hi"/><rect width="4" height="4" x="44" y="12" class="hi"/><rect width="4" height="4" x="48" y="12" class="md"/><rect width="4" height="4" x="52" y="12" class="sh"/><rect width="4" height="4" x="8" y="16" class="sh"/><rect width="4" height="4" x="12" y="16" class="md"/><rect width="4" height="4" x="16" y="16" class="hi"/><rect width="4" height="4" x="20" y="16" class="sh"/><rect width="4" height="4" x="24" y="16" class="sh"/><rect width="4" height="4" x="28" y="16" class="sh"/><rect width="4" height="4" x="32" y="16" class="sh"/><rect width="4" height="4" x="36" y="16" class="sh"/><rect width="4" height="4" x="40" y="16" class="hi"/><rect width="4" height="4" x="44" y="16" class="hi"/><rect width="4" height="4" x="48" y="16" class="md"/><rect width="4" height="4" x="52" y="16" class="sh"/><rect width="4" height="4" x="4" y="20" class="sh"/><rect width="4" height="4" x="8" y="20" class="md"/><rect width="4" height="4" x="12" y="20" class="hi"/><rect width="4" height="4" x="16" y="20" class="hi"/><rect width="4" height="4" x="20" y="20" class="sh"/><rect width="4" height="4" x="24" y="20" class="hi"/><rect width="4" height="4" x="28" y="20" class="hi"/><rect width="4" height="4" x="32" y="20" class="hi"/><rect width="4" height="4" x="36" y="20" class="hi"/><rect width="4" height="4" x="40" y="20" class="hi"/><rect width="4" height="4" x="44" y="20" class="hi"/><rect width="4" height="4" x="48" y="20" class="md"/><rect width="4" height="4" x="52" y="20" class="md"/><rect width="4" height="4" x="56" y="20" class="sh"/><rect width="4" height="4" x="4" y="24" class="sh"/><rect width="4" height="4" x="8" y="24" class="md"/><rect width="4" height="4" x="12" y="24" class="hi"/><rect width="4" height="4" x="16" y="24" class="hi"/><rect width="4" height="4" x="20" y="24" class="sh"/><rect width="4" height="4" x="24" y="24" class="hi"/><rect width="4" height="4" x="28" y="24" class="hi"/><rect width="4" height="4" x="32" y="24" class="hi"/><rect width="4" height="4" x="36" y="24" class="hi"/><rect width="4" height="4" x="40" y="24" class="hi"/><rect width="4" height="4" x="44" y="24" class="hi"/><rect width="4" height="4" x="48" y="24" class="md"/><rect width="4" height="4" x="52" y="24" class="md"/><rect width="4" height="4" x="56" y="24" class="sh"/><rect width="4" height="4" x="4" y="28" class="sh"/><rect width="4" height="4" x="8" y="28" class="md"/><rect width="4" height="4" x="12" y="28" class="hi"/><rect width="4" height="4" x="16" y="28" class="hi"/><rect width="4" height="4" x="20" y="28" class="sh"/><rect width="4" height="4" x="24" y="28" class="sh"/><rect width="4" height="4" x="28" y="28" class="sh"/><rect width="4" height="4" x="32" y="28" class="sh"/><rect width="4" height="4" x="36" y="28" class="sh"/><rect width="4" height="4" x="40" y="28" class="hi"/><rect width="4" height="4" x="44" y="28" class="hi"/><rect width="4" height="4" x="48" y="28" class="md"/><rect width="4" height="4" x="52" y="28" class="md"/><rect width="4" height="4" x="56" y="28" class="sh"/><rect width="4" height="4" x="4" y="32" class="sh"/><rect width="4" height="4" x="8" y="32" class="md"/><rect width="4" height="4" x="12" y="32" class="hi"/><rect width="4" height="4" x="16" y="32" class="hi"/><rect width="4" height="4" x="20" y="32" class="hi"/><rect width="4" height="4" x="24" y="32" class="hi"/><rect width="4" height="4" x="28" y="32" class="hi"/><rect width="4" height="4" x="32" y="32" class="hi"/><rect width="4" height="4" x="36" y="32" class="sh"/><rect width="4" height="4" x="40" y="32" class="hi"/><rect width="4" height="4" x="44" y="32" class="hi"/><rect width="4" height="4" x="48" y="32" class="md"/><rect width="4" height="4" x="52" y="32" class="md"/><rect width="4" height="4" x="56" y="32" class="sh"/><rect width="4" height="4" x="4" y="36" class="sh"/><rect width="4" height="4" x="8" y="36" class="md"/><rect width="4" height="4" x="12" y="36" class="hi"/><rect width="4" height="4" x="16" y="36" class="hi"/><rect width="4" height="4" x="20" y="36" class="hi"/><rect width="4" height="4" x="24" y="36" class="hi"/><rect width="4" height="4" x="28" y="36" class="hi"/><rect width="4" height="4" x="32" y="36" class="hi"/><rect width="4" height="4" x="36" y="36" class="sh"/><rect width="4" height="4" x="40" y="36" class="hi"/><rect width="4" height="4" x="44" y="36" class="hi"/><rect width="4" height="4" x="48" y="36" class="md"/><rect width="4" height="4" x="52" y="36" class="md"/><rect width="4" height="4" x="56" y="36" class="sh"/><rect width="4" height="4" x="8" y="40" class="sh"/><rect width="4" height="4" x="12" y="40" class="md"/><rect width="4" height="4" x="16" y="40" class="hi"/><rect width="4" height="4" x="20" y="40" class="sh"/><rect width="4" height="4" x="24" y="40" class="sh"/><rect width="4" height="4" x="28" y="40" class="sh"/><rect width="4" height="4" x="32" y="40" class="sh"/><rect width="4" height="4" x="36" y="40" class="sh"/><rect width="4" height="4" x="40" y="40" class="hi"/><rect width="4" height="4" x="44" y="40" class="hi"/><rect width="4" height="4" x="48" y="40" class="md"/><rect width="4" height="4" x="52" y="40" class="md"/><rect width="4" height="4" x="56" y="40" class="sh"/><rect width="4" height="4" x="8" y="44" class="sh"/><rect width="4" height="4" x="12" y="44" class="md"/><rect width="4" height="4" x="16" y="44" class="hi"/><rect width="4" height="4" x="20" y="44" class="hi"/><rect width="4" height="4" x="24" y="44" class="hi"/><rect width="4" height="4" x="28" y="44" class="hi"/><rect width="4" height="4" x="32" y="44" class="hi"/><rect width="4" height="4" x="36" y="44" class="hi"/><rect width="4" height="4" x="40" y="44" class="hi"/><rect width="4" height="4" x="44" y="44" class="hi"/><rect width="4" height="4" x="48" y="44" class="md"/><rect width="4" height="4" x="52" y="44" class="sh"/><rect width="4" height="4" x="8" y="48" class="sh"/><rect width="4" height="4" x="12" y="48" class="sh"/><rect width="4" height="4" x="16" y="48" class="md"/><rect width="4" height="4" x="20" y="48" class="md"/><rect width="4" height="4" x="24" y="48" class="md"/><rect width="4" height="4" x="28" y="48" class="md"/><rect width="4" height="4" x="32" y="48" class="md"/><rect width="4" height="4" x="36" y="48" class="md"/><rect width="4" height="4" x="40" y="48" class="md"/><rect width="4" height="4" x="44" y="48" class="md"/><rect width="4" height="4" x="48" y="48" class="sh"/><rect width="4" height="4" x="52" y="48" class="sh"/><rect width="4" height="4" x="12" y="52" class="sh"/><rect width="4" height="4" x="16" y="52" class="sh"/><rect width="4" height="4" x="20" y="52" class="sh"/><rect width="4" height="4" x="24" y="52" class="sh"/><rect width="4" height="4" x="28" y="52" class="sh"/><rect width="4" height="4" x="32" y="52" class="sh"/><rect width="4" height="4" x="36" y="52" class="sh"/><rect width="4" height="4" x="40" y="52" class="sh"/><rect width="4" height="4" x="44" y="52" class="sh"/><rect width="4" height="4" x="48" y="52" class="sh"/></g><text x="36" y="78" class="label" text-anchor="middle">PAY</text></g></svg>