<svg xmlns="http://www.w3.org/2000/svg" viewBox="0 0 16 16"><rect width="2" height="2" x="0" y="0" fill="#F8FAFC" shape-rendering="crispEdges"/><rect width="2" height="2" x="2" y="2" fill="#F8FAFC" shape-rendering="crispEdges"/><rect width="2" height="2" x="4" y="4" fill="#F8FAFC" shape-rendering="crispEdges"/><rect width="2" height="2" x="6" y="6" fill="#F8FAFC" shape-rendering="crispEdges"/><rect width="2" height="2" x="8" y="8" fill="#F8FAFC" shape-rendering="crispEdges"/><rect width="2" height="2" x="10" y="10" fill="#F8FAFC" shape-rendering="crispEdges"/><rect width="2" height="2" x="12" y="12" fill="#F8FAFC" shape-rendering="crispEdges"/><rect width="2" height="2" x="14" y="14" fill="#F8FAFC" shape-rendering="crispEdges"/><rect width="2" height="2" x="14" y="0" fill="#F8FAFC" shape-rendering="crispEdges"/><rect width="2" height="2" x="12" y="2" fill="#F8FAFC" shape-rendering="crispEdges"/><rect width="2" height="2" x="10" y="4" fill="#F8FAFC" shape-rendering="crispEdges"/><rect width="2" height="2" x="8" y="6" fill="#F8FAFC" shape-rendering="crispEdges"/><rect width="2" height="2" x="6" y="8" fill="#F8FAFC" shape-rendering="crispEdges"/><rect width="2" height="2" x="4" y="10" fill="#F8FAFC" shape-rendering="crispEdges"/><rect width="2" height="2" x="2" y="12" fill="#F8FAFC" shape-rendering="crispEdges"/><rect width="2" height="2" x="0" y="14" fill="#F8FAFC" shape-rendering="crispEdges"/></svg>